<?xml version="1.0" encoding="UTF-8" standalone="no"?>
<!-- Created with Inkscape (http://www.inkscape.org/) -->

<svg
   xmlns:dc="http://purl.org/dc/elements/1.1/"
   xmlns:cc="http://creativecommons.org/ns#"
   xmlns:rdf="http://www.w3.org/1999/02/22-rdf-syntax-ns#"
   xmlns:svg="http://www.w3.org/2000/svg"
   xmlns="http://www.w3.org/2000/svg"
   xmlns:sodipodi="http://sodipodi.sourceforge.net/DTD/sodipodi-0.dtd"
   xmlns:inkscape="http://www.inkscape.org/namespaces/inkscape"
   width="42"
   height="42"
   viewBox="0 0 11.1125 11.1125"
   version="1.1"
   id="svg4500"
   inkscape:version="0.92.0 r15299"
   sodipodi:docname="logo.svg">
  <defs
     id="defs4494" />
  <sodipodi:namedview
     id="base"
     pagecolor="#ffffff"
     bordercolor="#666666"
     borderopacity="1.0"
     inkscape:pageopacity="0.0"
     inkscape:pageshadow="2"
     inkscape:zoom="1.979899"
     inkscape:cx="-59.320112"
     inkscape:cy="-13.598371"
     inkscape:document-units="mm"
     inkscape:current-layer="layer1"
     showgrid="false"
     units="px"
     inkscape:window-width="1217"
     inkscape:window-height="777"
     inkscape:window-x="-8"
     inkscape:window-y="-8"
     inkscape:window-maximized="1" />
  <metadata
     id="metadata4497">
    <rdf:RDF>
      <cc:Work
         rdf:about="">
        <dc:format>image/svg+xml</dc:format>
        <dc:type
           rdf:resource="http://purl.org/dc/dcmitype/StillImage" />
        <dc:title></dc:title>
      </cc:Work>
    </rdf:RDF>
  </metadata>
  <g
     inkscape:label="Layer 1"
     inkscape:groupmode="layer"
     id="layer1"
     transform="translate(0,-285.88748)">
    <rect
       style="color:#000000;clip-rule:nonzero;display:inline;overflow:visible;visibility:visible;opacity:1;isolation:auto;mix-blend-mode:normal;color-interpolation:sRGB;color-interpolation-filters:linearRGB;solid-color:#000000;solid-opacity:1;vector-effect:none;fill:#800000;fill-opacity:1;fill-rule:evenodd;stroke:none;stroke-width:1.19080234;stroke-linecap:butt;stroke-linejoin:miter;stroke-miterlimit:4;stroke-dasharray:none;stroke-dashoffset:0;stroke-opacity:1;color-rendering:auto;image-rendering:auto;shape-rendering:auto;text-rendering:auto;enable-background:accumulate"
       id="rect5049"
       width="11.1125"
       height="11.1125"
       x="0"
       y="285.88748" />
    <g
       aria-label="ATD"
       style="font-style:normal;font-weight:normal;font-size:5.72483158px;line-height:3.57801962px;font-family:sans-serif;letter-spacing:0px;word-spacing:0px;fill:#e44b00;fill-opacity:1;stroke:none;stroke-width:0.14312078px;stroke-linecap:butt;stroke-linejoin:miter;stroke-opacity:1"
       id="text5047"
       transform="translate(-0.15246945,0.174525)">
      <path
         d="M 5.2737288,293.35446 H 4.5237759 q -0.1259463,0 -0.2089564,-0.0573 -0.080148,-0.0601 -0.1116342,-0.1517 L 3.9570175,292.41845 H 2.3712392 l -0.2461678,0.72706 q -0.028624,0.0801 -0.1116342,0.14598 -0.08301,0.063 -0.2032315,0.063 H 1.0545279 l 1.6144025,-4.17054 H 3.6593263 Z M 2.5945076,291.7601 h 1.1392415 l -0.3835637,-1.14211 q -0.037211,-0.10877 -0.088735,-0.25475 -0.048661,-0.14885 -0.097322,-0.32059 -0.045799,0.1746 -0.09446,0.32345 -0.048661,0.14885 -0.091597,0.25762 z"
         style="font-style:normal;font-variant:normal;font-weight:900;font-stretch:normal;font-size:5.72483158px;font-family:Lato;-inkscape-font-specification:'Lato, Heavy';font-variant-ligatures:normal;font-variant-caps:normal;font-variant-numeric:normal;font-feature-settings:normal;text-align:start;writing-mode:lr-tb;text-anchor:start;fill:#e44b00;fill-opacity:1;stroke-width:0.14312078px"
         id="path5055"
         inkscape:connector-curvature="0" />
      <path
         d="m 6.9787042,289.18392 v 0.76713 H 5.8051137 v 3.40341 H 4.8376172 v -3.40341 H 3.6640267 v -0.76713 z"
         style="font-style:normal;font-variant:normal;font-weight:900;font-stretch:normal;font-size:5.72483158px;font-family:Lato;-inkscape-font-specification:'Lato, Heavy';font-variant-ligatures:normal;font-variant-caps:normal;font-variant-numeric:normal;font-feature-settings:normal;text-align:start;writing-mode:lr-tb;text-anchor:start;fill:#e44b00;fill-opacity:1;stroke-width:0.14312078px"
         id="path5057"
         inkscape:connector-curvature="0" />
      <path
         d="m 10.362911,291.26776 q 0,0.45226 -0.157433,0.83583 -0.15457,0.3807 -0.4379495,0.66121 -0.2833791,0.27766 -0.6841173,0.43509 -0.3978758,0.15457 -0.8844865,0.15457 H 6.5787973 v -4.17054 h 1.6201274 q 0.4866107,0 0.8844865,0.15743 0.4007382,0.15744 0.6841173,0.43509 0.2833795,0.27766 0.4379495,0.66122 0.157433,0.3807 0.157433,0.8301 z m -0.9903958,0 q 0,-0.30914 -0.080148,-0.55817 -0.080148,-0.24903 -0.2318557,-0.42078 -0.1488456,-0.1746 -0.3663892,-0.2662 -0.2175436,-0.0945 -0.4951979,-0.0945 h -0.646906 v 2.68208 h 0.646906 q 0.2776543,0 0.4951979,-0.0916 0.2175436,-0.0945 0.3663892,-0.26621 0.1517081,-0.17461 0.2318557,-0.42364 0.080148,-0.24903 0.080148,-0.56103 z"
         style="font-style:normal;font-variant:normal;font-weight:900;font-stretch:normal;font-size:5.72483158px;font-family:Lato;-inkscape-font-specification:'Lato, Heavy';font-variant-ligatures:normal;font-variant-caps:normal;font-variant-numeric:normal;font-feature-settings:normal;text-align:start;writing-mode:lr-tb;text-anchor:start;fill:#e44b00;fill-opacity:1;stroke-width:0.14312078px"
         id="path5059"
         inkscape:connector-curvature="0" />
    </g>
  </g>
</svg>
